<svg xmlns="http://www.w3.org/2000/svg" viewBox="0 0 725.27 728.55"><defs><style>.cls-1{fill:#fff;}</style></defs><title>Asset 1</title><g id="Layer_2" data-name="Layer 2"><g id="Layer_1-2" data-name="Layer 1"><path d="M356.26,689q-103.71,0-207.43,0c-34,0-51.92-13.2-63.87-44.8-2-5.4-7.28-10.5-12.33-13.68C53.32,618.35,42,601.54,42,578.64q-.36-156,.08-312c.1-25.3,13.27-43.73,36.43-53.12,9.92-4,12.1-9,12-18.59-.46-33.66-.36-67.34-.12-101,.25-35.89,19-54.76,54.4-54.78q215.55-.13,431.09,0c37.6,0,55.93,18.64,56.1,56.77.15,33.07.27,66.14-.11,99.2-.11,9.24,1.46,14.87,11.36,19.19,23.64,10.31,35.62,29.66,35.64,55.65q.15,153.32,0,306.63c0,26-12.66,44.07-35.62,56-5.59,2.9-11.4,8.36-13.73,14-12,29.1-30.35,42.35-62.16,42.4Q461.78,689.16,356.26,689ZM559.58,566.15c0-8.33,0-14.87,0-21.4q0-135.31,0-270.63c0-29.33,12.4-50.47,40.18-62.34,4.54-1.94,9.77-8.85,9.87-13.57.79-36.67.76-73.36.23-110-.26-18-10.08-27.57-28.45-27.59q-220.11-.31-440.21,0c-19,0-29.18,10-29.42,28.85q-.72,55,.23,110c.08,4.42,4.43,11,8.46,12.75,26.83,11.88,38.8,32,38.68,61.13-.37,90.81-.13,181.62-.13,272.43,0,6.44,0,12.89,0,20.39ZM357.5,667.59c70.93,0,141.86.17,212.79-.09,24.77-.09,40.46-15.66,40.39-38.7-.06-22.25-15.23-38.15-38.94-38.2-142.46-.32-284.92-.47-427.37.45-10.53.07-23.08,6.86-31,14.4-11.21,10.66-12,25.95-4.93,40.19,7.3,14.77,19.52,22,36.29,22Q251.11,667.44,357.5,667.59Zm273.93-53c21.28-9,26.51-24.18,26.45-43.17-.26-82.87-.08-165.73-.12-248.6,0-19.21.52-38.47-.62-57.62-1.11-18.58-15.64-32.54-33.48-34.42A37.09,37.09,0,0,0,584,257.83c-2.1,7.34-2.49,15.36-2.5,23.07q-.24,135.11-.1,270.22V569C606.8,575.05,622.66,590.25,631.44,614.57ZM137.7,568.21c0-101.72.32-201.51-.25-301.29-.12-21.12-17.32-36.28-37.33-36.31C79,230.58,62,246.9,61.84,270.3q-.72,153.34,0,306.68c.07,15.41,6.61,28.53,23,35.28C93.88,587.13,111.16,573,137.7,568.21Z"/><path class="cls-1" d="M559.58,566.15H159.05c0-7.5,0-13.95,0-20.39,0-90.81-.24-181.62.13-272.43.12-29.11-11.85-49.25-38.68-61.13-4-1.79-8.38-8.33-8.46-12.75q-1-55-.23-110c.25-18.86,10.45-28.83,29.42-28.85q220.11-.26,440.21,0c18.37,0,28.19,9.55,28.45,27.59.52,36.68.56,73.37-.23,110-.1,4.72-5.33,11.63-9.87,13.57-27.78,11.87-40.16,33-40.18,62.34q-.08,135.31,0,270.63C559.58,551.29,559.58,557.82,559.58,566.15Z"/><path class="cls-1" d="M357.5,667.59q-106.39,0-212.79.05c-16.77,0-29-7.22-36.29-22-7-14.24-6.29-29.53,4.93-40.19,7.93-7.54,20.48-14.33,31-14.4,142.45-.93,284.91-.77,427.37-.45,23.71.05,38.88,15.95,38.94,38.2.06,23-15.63,38.6-40.39,38.7C499.36,667.77,428.43,667.59,357.5,667.59Z"/><path class="cls-1" d="M631.44,614.57c-8.77-24.32-24.64-39.51-50-45.54V551.12q0-135.11.1-270.22c0-7.71.41-15.73,2.5-23.07a37.09,37.09,0,0,1,39.64-27.07c17.84,1.87,32.37,15.84,33.48,34.42,1.14,19.15.61,38.41.62,57.62,0,82.87-.14,165.74.12,248.6C657.95,590.38,652.71,605.52,631.44,614.57Z"/><path class="cls-1" d="M137.7,568.21c-26.54,4.77-43.82,18.92-52.8,44-16.4-6.75-22.94-19.87-23-35.28q-.69-153.34,0-306.68C62,246.9,79,230.58,100.12,230.61c20,0,37.21,15.19,37.33,36.31C138,366.7,137.7,466.49,137.7,568.21Z"/></g></g></svg>